<?xml version="1.0" encoding="utf-8"?>
<!-- Generator: Adobe Illustrator 23.0.5, SVG Export Plug-In . SVG Version: 6.00 Build 0)  -->
<svg version="1.1" id="Layer_1" xmlns="http://www.w3.org/2000/svg" xmlns:xlink="http://www.w3.org/1999/xlink" x="0px" y="0px"
	 viewBox="0 0 1920 1080" style="enable-background:new 0 0 1920 1080;" xml:space="preserve">
<style type="text/css">
	.st0{fill:#5B38B2;}
	.st1{fill:url(#SVGID_1_);}
	.st2{fill:url(#SVGID_2_);}
	.st3{fill:url(#SVGID_3_);}
	.st4{fill:url(#SVGID_4_);}
	.st5{fill:url(#SVGID_5_);}
	.st6{fill:url(#SVGID_6_);}
	.st7{fill:url(#SVGID_7_);}
	.st8{fill:url(#SVGID_8_);}
	.st9{fill:url(#SVGID_9_);}
	.st10{fill:url(#SVGID_10_);}
	.st11{fill:url(#SVGID_11_);}
	.st12{fill:url(#SVGID_12_);}
	.st13{fill:url(#SVGID_13_);}
	.st14{fill:url(#SVGID_14_);}
	.st15{fill:url(#SVGID_15_);}
	.st16{fill:url(#SVGID_16_);}
	.st17{fill:url(#SVGID_17_);}
	.st18{fill:url(#SVGID_18_);}
	.st19{fill:url(#SVGID_19_);}
	.st20{fill:url(#SVGID_20_);}
	.st21{fill:url(#SVGID_21_);}
	.st22{fill:url(#SVGID_22_);}
	.st23{fill:url(#SVGID_23_);}
	.st24{fill:url(#SVGID_24_);}
	.st25{fill:url(#SVGID_25_);}
	.st26{fill:url(#SVGID_26_);}
	.st27{fill:url(#SVGID_27_);}
	.st28{fill:url(#SVGID_28_);}
</style>
<g>
	<rect class="st0" width="1920" height="1080"/>
	<linearGradient id="SVGID_1_" gradientUnits="userSpaceOnUse" x1="0" y1="540" x2="1920" y2="540">
		<stop  offset="0" style="stop-color:#FFFFFF"/>
		<stop  offset="1" style="stop-color:#000000"/>
	</linearGradient>
	<path class="st1" d="M1919,1v1078H1V1H1919 M1920,0H0v1080h1920V0L1920,0z"/>
</g>
<g>
	<circle class="st0" cx="251" cy="688" r="46"/>
	<linearGradient id="SVGID_2_" gradientUnits="userSpaceOnUse" x1="205" y1="688" x2="297" y2="688">
		<stop  offset="0" style="stop-color:#FFFFFF"/>
		<stop  offset="1" style="stop-color:#000000"/>
	</linearGradient>
	<path class="st2" d="M251,643c24.8,0,45,20.2,45,45s-20.2,45-45,45s-45-20.2-45-45S226.2,643,251,643 M251,642
		c-25.4,0-46,20.6-46,46c0,25.4,20.6,46,46,46s46-20.6,46-46C297,662.6,276.4,642,251,642L251,642z"/>
</g>
<g>
	<circle class="st0" cx="375" cy="230" r="46"/>
	<linearGradient id="SVGID_3_" gradientUnits="userSpaceOnUse" x1="329" y1="230" x2="421" y2="230">
		<stop  offset="0" style="stop-color:#FFFFFF"/>
		<stop  offset="1" style="stop-color:#000000"/>
	</linearGradient>
	<path class="st3" d="M375,185c24.8,0,45,20.2,45,45s-20.2,45-45,45s-45-20.2-45-45S350.2,185,375,185 M375,184
		c-25.4,0-46,20.6-46,46s20.6,46,46,46s46-20.6,46-46S400.4,184,375,184L375,184z"/>
</g>
<g>
	<circle class="st0" cx="524" cy="900" r="46"/>
	<linearGradient id="SVGID_4_" gradientUnits="userSpaceOnUse" x1="478" y1="900" x2="570" y2="900">
		<stop  offset="0" style="stop-color:#FFFFFF"/>
		<stop  offset="1" style="stop-color:#000000"/>
	</linearGradient>
	<path class="st4" d="M524,855c24.8,0,45,20.2,45,45s-20.2,45-45,45s-45-20.2-45-45S499.2,855,524,855 M524,854
		c-25.4,0-46,20.6-46,46s20.6,46,46,46s46-20.6,46-46S549.4,854,524,854L524,854z"/>
</g>
<g>
	<circle class="st0" cx="1761" cy="258" r="46"/>
	<linearGradient id="SVGID_5_" gradientUnits="userSpaceOnUse" x1="1715" y1="258" x2="1807" y2="258">
		<stop  offset="0" style="stop-color:#FFFFFF"/>
		<stop  offset="1" style="stop-color:#000000"/>
	</linearGradient>
	<path class="st5" d="M1761,213c24.8,0,45,20.2,45,45s-20.2,45-45,45s-45-20.2-45-45S1736.2,213,1761,213 M1761,212
		c-25.4,0-46,20.6-46,46s20.6,46,46,46s46-20.6,46-46S1786.4,212,1761,212L1761,212z"/>
</g>
<g>
	<circle class="st0" cx="692" cy="258" r="46"/>
	<linearGradient id="SVGID_6_" gradientUnits="userSpaceOnUse" x1="646" y1="258" x2="738" y2="258">
		<stop  offset="0" style="stop-color:#FFFFFF"/>
		<stop  offset="1" style="stop-color:#000000"/>
	</linearGradient>
	<path class="st6" d="M692,213c24.8,0,45,20.2,45,45s-20.2,45-45,45s-45-20.2-45-45S667.2,213,692,213 M692,212
		c-25.4,0-46,20.6-46,46s20.6,46,46,46s46-20.6,46-46S717.4,212,692,212L692,212z"/>
</g>
<g>
	<circle class="st0" cx="1853" cy="483" r="46"/>
	<linearGradient id="SVGID_7_" gradientUnits="userSpaceOnUse" x1="1807" y1="483" x2="1899" y2="483">
		<stop  offset="0" style="stop-color:#FFFFFF"/>
		<stop  offset="1" style="stop-color:#000000"/>
	</linearGradient>
	<path class="st7" d="M1853,438c24.8,0,45,20.2,45,45s-20.2,45-45,45s-45-20.2-45-45S1828.2,438,1853,438 M1853,437
		c-25.4,0-46,20.6-46,46s20.6,46,46,46s46-20.6,46-46S1878.4,437,1853,437L1853,437z"/>
</g>
<g>
	<circle class="st0" cx="120" cy="437" r="46"/>
	<linearGradient id="SVGID_8_" gradientUnits="userSpaceOnUse" x1="74" y1="437" x2="166" y2="437">
		<stop  offset="0" style="stop-color:#FFFFFF"/>
		<stop  offset="1" style="stop-color:#000000"/>
	</linearGradient>
	<path class="st8" d="M120,392c24.8,0,45,20.2,45,45s-20.2,45-45,45s-45-20.2-45-45S95.2,392,120,392 M120,391
		c-25.4,0-46,20.6-46,46s20.6,46,46,46s46-20.6,46-46S145.4,391,120,391L120,391z"/>
</g>
<g>
	<circle class="st0" cx="179" cy="155" r="46"/>
	<linearGradient id="SVGID_9_" gradientUnits="userSpaceOnUse" x1="133" y1="155" x2="225" y2="155">
		<stop  offset="0" style="stop-color:#FFFFFF"/>
		<stop  offset="1" style="stop-color:#000000"/>
	</linearGradient>
	<path class="st9" d="M179,110c24.8,0,45,20.2,45,45s-20.2,45-45,45s-45-20.2-45-45S154.2,110,179,110 M179,109
		c-25.4,0-46,20.6-46,46s20.6,46,46,46s46-20.6,46-46S204.4,109,179,109L179,109z"/>
</g>
<g>
	<circle class="st0" cx="1844" cy="92" r="46"/>
	<linearGradient id="SVGID_10_" gradientUnits="userSpaceOnUse" x1="1798" y1="92" x2="1890" y2="92">
		<stop  offset="0" style="stop-color:#FFFFFF"/>
		<stop  offset="1" style="stop-color:#000000"/>
	</linearGradient>
	<path class="st10" d="M1844,47c24.8,0,45,20.2,45,45s-20.2,45-45,45s-45-20.2-45-45S1819.2,47,1844,47 M1844,46
		c-25.4,0-46,20.6-46,46s20.6,46,46,46s46-20.6,46-46S1869.4,46,1844,46L1844,46z"/>
</g>
<g>
	<circle class="st0" cx="646" cy="707" r="46"/>
	<linearGradient id="SVGID_11_" gradientUnits="userSpaceOnUse" x1="600" y1="707" x2="692" y2="707">
		<stop  offset="0" style="stop-color:#FFFFFF"/>
		<stop  offset="1" style="stop-color:#000000"/>
	</linearGradient>
	<path class="st11" d="M646,662c24.8,0,45,20.2,45,45s-20.2,45-45,45s-45-20.2-45-45S621.2,662,646,662 M646,661
		c-25.4,0-46,20.6-46,46s20.6,46,46,46s46-20.6,46-46S671.4,661,646,661L646,661z"/>
</g>
<g>
	<circle class="st0" cx="570" cy="447" r="46"/>
	<linearGradient id="SVGID_12_" gradientUnits="userSpaceOnUse" x1="524" y1="447" x2="616" y2="447">
		<stop  offset="0" style="stop-color:#FFFFFF"/>
		<stop  offset="1" style="stop-color:#000000"/>
	</linearGradient>
	<path class="st12" d="M570,402c24.8,0,45,20.2,45,45s-20.2,45-45,45s-45-20.2-45-45S545.2,402,570,402 M570,401
		c-25.4,0-46,20.6-46,46s20.6,46,46,46c25.4,0,46-20.6,46-46S595.4,401,570,401L570,401z"/>
</g>
<g>
	<circle class="st0" cx="205" cy="932" r="46"/>
	<linearGradient id="SVGID_13_" gradientUnits="userSpaceOnUse" x1="159" y1="932" x2="251" y2="932">
		<stop  offset="0" style="stop-color:#FFFFFF"/>
		<stop  offset="1" style="stop-color:#000000"/>
	</linearGradient>
	<path class="st13" d="M205,887c24.8,0,45,20.2,45,45s-20.2,45-45,45s-45-20.2-45-45S180.2,887,205,887 M205,886
		c-25.4,0-46,20.6-46,46s20.6,46,46,46c25.4,0,46-20.6,46-46S230.4,886,205,886L205,886z"/>
</g>
<g>
	<circle class="st0" cx="1715" cy="716" r="46"/>
	<linearGradient id="SVGID_14_" gradientUnits="userSpaceOnUse" x1="1669" y1="716" x2="1761" y2="716">
		<stop  offset="0" style="stop-color:#FFFFFF"/>
		<stop  offset="1" style="stop-color:#000000"/>
	</linearGradient>
	<path class="st14" d="M1715,671c24.8,0,45,20.2,45,45s-20.2,45-45,45s-45-20.2-45-45S1690.2,671,1715,671 M1715,670
		c-25.4,0-46,20.6-46,46s20.6,46,46,46s46-20.6,46-46S1740.4,670,1715,670L1715,670z"/>
</g>
<g>
	<circle class="st0" cx="1669" cy="913" r="46"/>
	<linearGradient id="SVGID_15_" gradientUnits="userSpaceOnUse" x1="1623" y1="913" x2="1715" y2="913">
		<stop  offset="0" style="stop-color:#FFFFFF"/>
		<stop  offset="1" style="stop-color:#000000"/>
	</linearGradient>
	<path class="st15" d="M1669,868c24.8,0,45,20.2,45,45s-20.2,45-45,45s-45-20.2-45-45S1644.2,868,1669,868 M1669,867
		c-25.4,0-46,20.6-46,46s20.6,46,46,46s46-20.6,46-46S1694.4,867,1669,867L1669,867z"/>
</g>
<g>
	<circle class="st0" cx="1158" cy="309" r="46"/>
	<linearGradient id="SVGID_16_" gradientUnits="userSpaceOnUse" x1="1112" y1="309" x2="1204" y2="309">
		<stop  offset="0" style="stop-color:#FFFFFF"/>
		<stop  offset="1" style="stop-color:#000000"/>
	</linearGradient>
	<path class="st16" d="M1158,264c24.8,0,45,20.2,45,45s-20.2,45-45,45s-45-20.2-45-45S1133.2,264,1158,264 M1158,263
		c-25.4,0-46,20.6-46,46s20.6,46,46,46c25.4,0,46-20.6,46-46S1183.4,263,1158,263L1158,263z"/>
</g>
<g>
	<circle class="st0" cx="898" cy="223" r="46"/>
	<linearGradient id="SVGID_17_" gradientUnits="userSpaceOnUse" x1="852" y1="223" x2="944" y2="223">
		<stop  offset="0" style="stop-color:#FFFFFF"/>
		<stop  offset="1" style="stop-color:#000000"/>
	</linearGradient>
	<path class="st17" d="M898,178c24.8,0,45,20.2,45,45s-20.2,45-45,45s-45-20.2-45-45S873.2,178,898,178 M898,177
		c-25.4,0-46,20.6-46,46s20.6,46,46,46c25.4,0,46-20.6,46-46S923.4,177,898,177L898,177z"/>
</g>
<g>
	<circle class="st0" cx="581" cy="120" r="46"/>
	<linearGradient id="SVGID_18_" gradientUnits="userSpaceOnUse" x1="535" y1="120" x2="627" y2="120">
		<stop  offset="0" style="stop-color:#FFFFFF"/>
		<stop  offset="1" style="stop-color:#000000"/>
	</linearGradient>
	<path class="st18" d="M581,75c24.8,0,45,20.2,45,45s-20.2,45-45,45s-45-20.2-45-45S556.2,75,581,75 M581,74c-25.4,0-46,20.6-46,46
		s20.6,46,46,46c25.4,0,46-20.6,46-46S606.4,74,581,74L581,74z"/>
</g>
<g>
	<circle class="st0" cx="1370" cy="184" r="46"/>
	<linearGradient id="SVGID_19_" gradientUnits="userSpaceOnUse" x1="1324" y1="184" x2="1416" y2="184">
		<stop  offset="0" style="stop-color:#FFFFFF"/>
		<stop  offset="1" style="stop-color:#000000"/>
	</linearGradient>
	<path class="st19" d="M1370,139c24.8,0,45,20.2,45,45s-20.2,45-45,45s-45-20.2-45-45S1345.2,139,1370,139 M1370,138
		c-25.4,0-46,20.6-46,46s20.6,46,46,46c25.4,0,46-20.6,46-46S1395.4,138,1370,138L1370,138z"/>
</g>
<g>
	<circle class="st0" cx="1547" cy="355" r="46"/>
	<linearGradient id="SVGID_20_" gradientUnits="userSpaceOnUse" x1="1501" y1="355" x2="1593" y2="355">
		<stop  offset="0" style="stop-color:#FFFFFF"/>
		<stop  offset="1" style="stop-color:#000000"/>
	</linearGradient>
	<path class="st20" d="M1547,310c24.8,0,45,20.2,45,45s-20.2,45-45,45s-45-20.2-45-45S1522.2,310,1547,310 M1547,309
		c-25.4,0-46,20.6-46,46s20.6,46,46,46s46-20.6,46-46S1572.4,309,1547,309L1547,309z"/>
</g>
<g>
	<circle class="st0" cx="874" cy="437" r="46"/>
	<linearGradient id="SVGID_21_" gradientUnits="userSpaceOnUse" x1="828" y1="437" x2="920" y2="437">
		<stop  offset="0" style="stop-color:#FFFFFF"/>
		<stop  offset="1" style="stop-color:#000000"/>
	</linearGradient>
	<path class="st21" d="M874,392c24.8,0,45,20.2,45,45s-20.2,45-45,45s-45-20.2-45-45S849.2,392,874,392 M874,391
		c-25.4,0-46,20.6-46,46s20.6,46,46,46c25.4,0,46-20.6,46-46S899.4,391,874,391L874,391z"/>
</g>
<g>
	<circle class="st0" cx="994" cy="716" r="46"/>
	<linearGradient id="SVGID_22_" gradientUnits="userSpaceOnUse" x1="948" y1="716" x2="1040" y2="716">
		<stop  offset="0" style="stop-color:#FFFFFF"/>
		<stop  offset="1" style="stop-color:#000000"/>
	</linearGradient>
	<path class="st22" d="M994,671c24.8,0,45,20.2,45,45s-20.2,45-45,45s-45-20.2-45-45S969.2,671,994,671 M994,670
		c-25.4,0-46,20.6-46,46s20.6,46,46,46c25.4,0,46-20.6,46-46S1019.4,670,994,670L994,670z"/>
</g>
<g>
	<circle class="st0" cx="929" cy="932" r="46"/>
	<linearGradient id="SVGID_23_" gradientUnits="userSpaceOnUse" x1="883" y1="932" x2="975" y2="932">
		<stop  offset="0" style="stop-color:#FFFFFF"/>
		<stop  offset="1" style="stop-color:#000000"/>
	</linearGradient>
	<path class="st23" d="M929,887c24.8,0,45,20.2,45,45s-20.2,45-45,45s-45-20.2-45-45S904.2,887,929,887 M929,886
		c-25.4,0-46,20.6-46,46s20.6,46,46,46s46-20.6,46-46S954.4,886,929,886L929,886z"/>
</g>
<g>
	<circle class="st0" cx="1112" cy="550" r="46"/>
	<linearGradient id="SVGID_24_" gradientUnits="userSpaceOnUse" x1="1066" y1="550" x2="1158" y2="550">
		<stop  offset="0" style="stop-color:#FFFFFF"/>
		<stop  offset="1" style="stop-color:#000000"/>
	</linearGradient>
	<path class="st24" d="M1112,505c24.8,0,45,20.2,45,45s-20.2,45-45,45s-45-20.2-45-45S1087.2,505,1112,505 M1112,504
		c-25.4,0-46,20.6-46,46s20.6,46,46,46c25.4,0,46-20.6,46-46S1137.4,504,1112,504L1112,504z"/>
</g>
<g>
	<circle class="st0" cx="1086" cy="92" r="46"/>
	<linearGradient id="SVGID_25_" gradientUnits="userSpaceOnUse" x1="1040" y1="92" x2="1132" y2="92">
		<stop  offset="0" style="stop-color:#FFFFFF"/>
		<stop  offset="1" style="stop-color:#000000"/>
	</linearGradient>
	<path class="st25" d="M1086,47c24.8,0,45,20.2,45,45s-20.2,45-45,45s-45-20.2-45-45S1061.2,47,1086,47 M1086,46
		c-25.4,0-46,20.6-46,46s20.6,46,46,46c25.4,0,46-20.6,46-46S1111.4,46,1086,46L1086,46z"/>
</g>
<g>
	<circle class="st0" cx="1232" cy="1024" r="46"/>
	<linearGradient id="SVGID_26_" gradientUnits="userSpaceOnUse" x1="1186" y1="1024" x2="1278" y2="1024">
		<stop  offset="0" style="stop-color:#FFFFFF"/>
		<stop  offset="1" style="stop-color:#000000"/>
	</linearGradient>
	<path class="st26" d="M1232,979c24.8,0,45,20.2,45,45s-20.2,45-45,45s-45-20.2-45-45S1207.2,979,1232,979 M1232,978
		c-25.4,0-46,20.6-46,46c0,25.4,20.6,46,46,46c25.4,0,46-20.6,46-46C1278,998.6,1257.4,978,1232,978L1232,978z"/>
</g>
<g>
	<circle class="st0" cx="1324" cy="813" r="46"/>
	<linearGradient id="SVGID_27_" gradientUnits="userSpaceOnUse" x1="1278" y1="813" x2="1370" y2="813">
		<stop  offset="0" style="stop-color:#FFFFFF"/>
		<stop  offset="1" style="stop-color:#000000"/>
	</linearGradient>
	<path class="st27" d="M1324,768c24.8,0,45,20.2,45,45s-20.2,45-45,45s-45-20.2-45-45S1299.2,768,1324,768 M1324,767
		c-25.4,0-46,20.6-46,46s20.6,46,46,46c25.4,0,46-20.6,46-46S1349.4,767,1324,767L1324,767z"/>
</g>
<g>
	<circle class="st0" cx="1443" cy="540" r="46"/>
	<linearGradient id="SVGID_28_" gradientUnits="userSpaceOnUse" x1="1397" y1="540" x2="1489" y2="540">
		<stop  offset="0" style="stop-color:#FFFFFF"/>
		<stop  offset="1" style="stop-color:#000000"/>
	</linearGradient>
	<path class="st28" d="M1443,495c24.8,0,45,20.2,45,45s-20.2,45-45,45s-45-20.2-45-45S1418.2,495,1443,495 M1443,494
		c-25.4,0-46,20.6-46,46s20.6,46,46,46c25.4,0,46-20.6,46-46S1468.4,494,1443,494L1443,494z"/>
</g>
</svg>
